# 3ds Max Wavefront OBJ Exporter v0.97b - (c)2007 guruware
# File Created: 06.03.2017 20:07:53

#
# object flower2
#

v  -987.8086 113.1318 3807.9956
v  -987.8086 -245.7966 3402.0718
v  -445.9570 -245.7966 3402.0718
v  -445.9570 113.1318 3807.9956
v  -733.2480 60.3163 3548.5325
v  -729.9272 14.1276 3496.2964
v  -654.6660 13.3944 3495.4673
v  -654.6660 57.3834 3545.2158
v  -846.3765 81.8783 3665.5276
v  -832.5220 -95.8051 3464.5796
v  -558.2280 -106.5281 3452.4529
v  -551.9478 87.6437 3672.0479
v  -584.5439 71.2405 3122.0112
v  -719.7979 11.9519 3209.8445
v  -894.4448 -16.2676 2921.8604
v  -759.1909 43.0209 2834.0264
v  -639.3071 11.1407 3165.1787
v  -813.9541 -17.0789 2877.1943
v  -762.5376 2.7136 3137.7949
v  -791.9658 -38.0387 3064.9697
v  -840.4478 -33.6813 2993.2544
v  -705.1943 25.6072 2905.4209
v  -656.7124 21.2499 2977.1365
v  -627.2837 62.0023 3049.9612
v  -682.0469 1.9022 3093.1289
v  -711.4756 -38.8501 3020.3042
v  -759.9570 -34.4926 2948.5886
v  -610.9165 86.7814 3289.2791
v  -652.5361 -4.1187 3194.8828
v  -396.7222 -67.2446 3141.2954
v  -355.1025 23.6556 3235.6919
v  -632.9502 29.4230 3255.8521
v  -377.1362 -33.7029 3202.2649
v  -588.8579 -22.5763 3184.5808
v  -526.0146 -49.1606 3183.6763
v  -461.5005 -59.4918 3163.9771
v  -419.8813 31.4083 3258.3730
v  -484.3950 41.7396 3278.0728
v  -547.2383 68.3237 3278.9771
v  -569.2720 10.9653 3245.5503
v  -506.4282 -15.6189 3244.6460
v  -441.9146 -25.9501 3224.9463
v  -630.8721 30.8888 3229.3408
v  -614.7632 29.8761 3088.8794
v  -621.5264 10.6218 3088.7651
v  -647.1865 19.0447 3225.5771
v  -607.3481 13.7075 2808.7593
v  -607.5303 0.9246 2669.7349
v  -587.1450 -0.0122 2669.8457
v  -591.3569 1.0972 2810.3242
v  -608.4580 24.1960 2948.3547
v  -602.8599 4.6300 2950.1609
v  -679.6655 29.8098 3360.0718
v  -718.8091 42.7881 3491.7424
v  -703.7021 31.2020 3500.4878
v  -660.2261 29.9291 3367.4614
# 56 vertices

vn -0.2061 -0.5567 0.8047
vn -0.2166 -0.8486 0.4826
vn 0.1950 -0.8655 0.4614
vn 0.1889 -0.5386 0.8211
vn 0.1950 -0.8655 0.4614
vn -0.2166 -0.8486 0.4826
vn -0.2975 -0.8818 0.3659
vn 0.2584 -0.8811 0.3961
vn -0.2166 -0.8486 0.4826
vn -0.2061 -0.5567 0.8047
vn -0.2764 -0.4758 0.8350
vn -0.2975 -0.8818 0.3659
vn -0.2061 -0.5567 0.8047
vn 0.1889 -0.5386 0.8211
vn 0.2421 -0.5036 0.8293
vn -0.2764 -0.4758 0.8350
vn 0.1950 -0.8655 0.4614
vn 0.2584 -0.8811 0.3961
vn 0.2421 -0.5036 0.8293
vn 0.1889 -0.5386 0.8211
vn 0.2692 -0.8603 0.4329
vn 0.2465 -0.5513 0.7970
vn 0.2421 -0.5036 0.8293
vn 0.2584 -0.8811 0.3961
vn 0.2421 -0.5036 0.8293
vn 0.2465 -0.5513 0.7970
vn -0.2844 -0.4943 0.8215
vn -0.2764 -0.4758 0.8350
vn -0.2764 -0.4758 0.8350
vn -0.2844 -0.4943 0.8215
vn -0.3061 -0.8762 0.3722
vn -0.2975 -0.8818 0.3659
vn -0.3061 -0.8762 0.3722
vn 0.2692 -0.8603 0.4329
vn 0.2584 -0.8811 0.3961
vn -0.2975 -0.8818 0.3659
vn 0.3836 -0.9221 -0.0513
vn 0.6211 -0.7478 -0.2346
vn 0.6569 -0.7342 -0.1718
vn 0.4205 -0.9072 0.0110
vn 0.0906 -0.9896 0.1117
vn 0.3836 -0.9221 -0.0513
vn 0.4205 -0.9072 0.0110
vn 0.1340 -0.9708 0.1991
vn 0.1439 -0.8993 -0.4130
vn 0.3707 -0.7496 -0.5483
vn 0.4131 -0.7572 -0.5059
vn 0.1912 -0.9150 -0.3552
vn 0.1912 -0.9150 -0.3552
vn 0.4131 -0.7572 -0.5059
vn 0.6211 -0.7478 -0.2346
vn 0.3836 -0.9221 -0.0513
vn 0.5566 -0.7612 -0.3328
vn 0.3240 -0.9303 -0.1720
vn 0.4205 -0.9072 0.0110
vn 0.6569 -0.7342 -0.1718
vn -0.0900 -0.9655 -0.2445
vn 0.1439 -0.8993 -0.4130
vn 0.1912 -0.9150 -0.3552
vn -0.0632 -0.9793 -0.1923
vn -0.0632 -0.9793 -0.1923
vn 0.1912 -0.9150 -0.3552
vn 0.3836 -0.9221 -0.0513
vn 0.0906 -0.9896 0.1117
vn 0.3240 -0.9303 -0.1720
vn 0.0427 -0.9990 0.0163
vn 0.1340 -0.9708 0.1991
vn 0.4205 -0.9072 0.0110
vn -0.0858 -0.6860 0.7225
vn 0.0051 -0.4566 0.8897
vn -0.0920 -0.4209 0.9024
vn -0.1745 -0.6546 0.7356
vn -0.1701 -0.8552 0.4896
vn -0.0858 -0.6860 0.7225
vn -0.1745 -0.6546 0.7356
vn -0.2352 -0.8321 0.5023
vn 0.1455 -0.7301 0.6677
vn 0.2134 -0.5163 0.8294
vn 0.1903 -0.5109 0.8383
vn 0.1138 -0.7360 0.6673
vn 0.1138 -0.7360 0.6673
vn 0.1903 -0.5109 0.8383
vn 0.0051 -0.4566 0.8897
vn -0.0858 -0.6860 0.7225
vn -0.0054 -0.4530 0.8915
vn -0.0913 -0.6991 0.7092
vn -0.1745 -0.6546 0.7356
vn -0.0920 -0.4209 0.9024
vn 0.0572 -0.9017 0.4286
vn 0.1455 -0.7301 0.6677
vn 0.1138 -0.7360 0.6673
vn 0.0313 -0.8990 0.4369
vn 0.0313 -0.8990 0.4369
vn 0.1138 -0.7360 0.6673
vn -0.0858 -0.6860 0.7225
vn -0.1701 -0.8552 0.4896
vn -0.0913 -0.6991 0.7092
vn -0.1598 -0.8584 0.4874
vn -0.2352 -0.8321 0.5023
vn -0.1745 -0.6546 0.7356
vn -0.9235 0.3725 -0.0919
vn -0.9412 0.3155 -0.1211
vn -0.5618 0.8233 -0.0814
vn -0.5177 0.8537 -0.0562
vn -0.0977 -0.9926 -0.0727
vn -0.0423 -0.9959 -0.0800
vn -0.5660 -0.8225 -0.0562
vn -0.6132 -0.7889 -0.0404
vn -0.6132 -0.7889 -0.0404
vn -0.5660 -0.8225 -0.0562
vn -0.9381 -0.3330 -0.0949
vn -0.9589 -0.2750 -0.0697
vn -0.9589 -0.2750 -0.0697
vn -0.9381 -0.3330 -0.0949
vn -0.9412 0.3155 -0.1211
vn -0.9235 0.3725 -0.0919
vn 0.4554 0.8623 0.2216
vn 0.4926 0.8360 0.2416
vn 0.0353 0.9979 0.0551
vn -0.0160 0.9993 0.0345
vn -0.0160 0.9993 0.0345
vn 0.0353 0.9979 0.0551
vn -0.5177 0.8537 -0.0562
vn -0.5618 0.8233 -0.0814
# 124 vertex normals

vt 0.5275 0.2898 0.0000
vt 0.5275 0.1372 0.0000
vt 0.6730 0.1372 0.0000
vt 0.6730 0.2898 0.0000
vt 0.5959 0.2252 0.0000
vt 0.5968 0.2056 0.0000
vt 0.6170 0.2053 0.0000
vt 0.6170 0.2240 0.0000
vt 0.5655 0.2539 0.0000
vt 0.5692 0.1784 0.0000
vt 0.6429 0.1738 0.0000
vt 0.6446 0.2564 0.0000
vt 0.1801 0.1474 0.0000
vt 0.1801 0.0127 0.0000
vt 0.5010 0.0127 0.0000
vt 0.5010 0.1474 0.0000
vt 0.1801 0.0800 0.0000
vt 0.5010 0.0800 0.0000
vt 0.2603 0.0127 0.0000
vt 0.3405 0.0127 0.0000
vt 0.4208 0.0127 0.0000
vt 0.4208 0.1474 0.0000
vt 0.3405 0.1474 0.0000
vt 0.2603 0.1474 0.0000
vt 0.2603 0.0800 0.0000
vt 0.3405 0.0800 0.0000
vt 0.4208 0.0800 0.0000
vt 0.0216 0.2996 0.0000
vt 0.0216 0.1648 0.0000
vt 0.3425 0.1648 0.0000
vt 0.3425 0.2996 0.0000
vt 0.0216 0.2322 0.0000
vt 0.3425 0.2322 0.0000
vt 0.1018 0.1648 0.0000
vt 0.1820 0.1648 0.0000
vt 0.2623 0.1648 0.0000
vt 0.2623 0.2996 0.0000
vt 0.1820 0.2996 0.0000
vt 0.1018 0.2996 0.0000
vt 0.1018 0.2322 0.0000
vt 0.1820 0.2322 0.0000
vt 0.2623 0.2322 0.0000
vt 0.6894 0.0450 0.0000
vt 0.7644 0.0454 0.0000
vt 0.7644 0.1014 0.0000
vt 0.6894 0.1010 0.0000
vt 0.9144 0.0461 0.0000
vt 0.9894 0.0465 0.0000
vt 0.9894 0.1024 0.0000
vt 0.9144 0.1021 0.0000
vt 0.8394 0.0457 0.0000
vt 0.8394 0.1017 0.0000
vt 0.6144 0.1006 0.0000
vt 0.5394 0.1003 0.0000
vt 0.5395 0.0443 0.0000
vt 0.6145 0.0447 0.0000
# 56 texture coords

g flower2
s 1
f 7/7/1 8/8/2 5/5/3 6/6/4 
f 5/5/5 8/8/6 12/12/7 9/9/8 
f 8/8/9 7/7/10 11/11/11 12/12/12 
f 7/7/13 6/6/14 10/10/15 11/11/16 
f 5/5/17 9/9/18 10/10/19 6/6/20 
f 1/1/21 2/2/22 10/10/23 9/9/24 
f 10/10/25 2/2/26 3/3/27 11/11/28 
f 11/11/29 3/3/30 4/4/31 12/12/32 
f 4/4/33 1/1/34 9/9/35 12/12/36 
f 26/26/37 23/23/38 24/24/39 25/25/40 
f 20/20/41 26/26/42 25/25/43 19/19/44 
f 18/18/45 16/16/46 22/22/47 27/27/48 
f 27/27/49 22/22/50 23/23/51 26/26/52 
f 13/13/53 17/17/54 25/25/55 24/24/56 
f 15/15/57 18/18/58 27/27/59 21/21/60 
f 21/21/61 27/27/62 26/26/63 20/20/64 
f 17/17/65 14/14/66 19/19/67 25/25/68 
f 41/41/69 38/38/70 39/39/71 40/40/72 
f 35/35/73 41/41/74 40/40/75 34/34/76 
f 33/33/77 31/31/78 37/37/79 42/42/80 
f 42/42/81 37/37/82 38/38/83 41/41/84 
f 28/28/85 32/32/86 40/40/87 39/39/88 
f 30/30/89 33/33/90 42/42/91 36/36/92 
f 36/36/93 42/42/94 41/41/95 35/35/96 
f 32/32/97 29/29/98 34/34/99 40/40/100 
f 44/44/101 45/45/102 46/46/103 43/43/104 
f 48/48/105 49/49/106 50/50/107 47/47/108 
f 47/47/109 50/50/110 52/52/111 51/51/112 
f 51/51/113 52/52/114 45/45/115 44/44/116 
f 54/54/117 55/55/118 56/56/119 53/53/120 
f 53/53/121 56/56/122 43/43/123 46/46/124 
# 31 polygons

