# 3ds Max Wavefront OBJ Exporter v0.97b - (c)2007 guruware
# File Created: 06.03.2017 20:16:58

#
# object clover3
#

v  247.1385 20.8383 3066.4036
v  247.1385 -112.6751 2851.4927
v  500.1454 -112.6751 2851.4927
v  500.1454 20.8383 3066.4036
v  320.2196 -7.3959 2997.0469
v  319.1860 -71.7571 2893.4475
v  442.1832 -71.7571 2893.4475
v  442.1832 -3.0324 3004.0708
v  352.0026 -13.6102 2953.9573
v  352.5194 -32.4277 2923.6675
v  389.2120 -32.4277 2923.6675
v  389.2120 -12.7922 2955.2742
v  326.5990 -9.1100 2659.8154
v  308.9642 0.1841 2665.0156
v  332.9451 -10.4533 2800.2944
v  363.9989 -7.9609 2933.0127
v  383.8877 -7.3229 2938.3989
v  353.2388 -8.7128 2798.7810
# 18 vertices

vn -0.1135 -0.7436 0.6589
vn -0.1047 -0.9267 0.3609
vn 0.1948 -0.9115 0.3623
vn 0.1826 -0.7411 0.6461
vn 0.0974 -0.8900 0.4454
vn 0.1330 -0.9063 0.4013
vn -0.1247 -0.9038 0.4093
vn -0.1110 -0.8968 0.4283
vn 0.1330 -0.9063 0.4013
vn 0.1948 -0.9115 0.3623
vn -0.1047 -0.9267 0.3609
vn -0.1247 -0.9038 0.4093
vn -0.1135 -0.7436 0.6589
vn -0.1258 -0.7576 0.6405
vn -0.1247 -0.9038 0.4093
vn -0.1047 -0.9267 0.3609
vn 0.1826 -0.7411 0.6461
vn 0.1179 -0.7462 0.6552
vn -0.1258 -0.7576 0.6405
vn -0.1135 -0.7436 0.6589
vn 0.1179 -0.7462 0.6552
vn 0.1080 -0.7894 0.6043
vn -0.1200 -0.7775 0.6173
vn -0.1258 -0.7576 0.6405
vn -0.1110 -0.8968 0.4283
vn -0.1247 -0.9038 0.4093
vn -0.1258 -0.7576 0.6405
vn -0.1200 -0.7775 0.6173
vn 0.1948 -0.9115 0.3623
vn 0.1330 -0.9063 0.4013
vn 0.1179 -0.7462 0.6552
vn 0.1826 -0.7411 0.6461
vn 0.1330 -0.9063 0.4013
vn 0.0974 -0.8900 0.4454
vn 0.1080 -0.7894 0.6043
vn 0.1179 -0.7462 0.6552
vn -0.0338 0.9964 0.0776
vn -0.0296 0.9966 0.0772
vn -0.0779 0.9931 0.0872
vn -0.0535 0.9947 0.0874
vn -0.0535 0.9947 0.0874
vn -0.0779 0.9931 0.0872
vn 0.3970 0.9156 0.0631
vn 0.4444 0.8939 0.0587
# 44 vertex normals

vt 0.6944 0.4505 0.0000
vt 0.6944 0.2980 0.0000
vt 0.8399 0.2980 0.0000
vt 0.8399 0.4505 0.0000
vt 0.7365 0.4062 0.0000
vt 0.7359 0.3327 0.0000
vt 0.8066 0.3327 0.0000
vt 0.8066 0.4112 0.0000
vt 0.7547 0.3834 0.0000
vt 0.7550 0.3619 0.0000
vt 0.7761 0.3619 0.0000
vt 0.7761 0.3844 0.0000
vt 0.6894 0.0450 0.0000
vt 0.6894 0.1010 0.0000
vt 0.6144 0.1006 0.0000
vt 0.5394 0.1003 0.0000
vt 0.5395 0.0443 0.0000
vt 0.6145 0.0447 0.0000
# 18 texture coords

g clover3
s 1
f 11/11/1 12/12/2 9/9/3 10/10/4 
f 1/1/5 5/5/6 8/8/7 4/4/8 
f 5/5/9 9/9/10 12/12/11 8/8/12 
f 11/11/13 7/7/14 8/8/15 12/12/16 
f 10/10/17 6/6/18 7/7/19 11/11/20 
f 6/6/21 2/2/22 3/3/23 7/7/24 
f 4/4/25 8/8/26 7/7/27 3/3/28 
f 9/9/29 5/5/30 6/6/31 10/10/32 
f 5/5/33 1/1/34 2/2/35 6/6/36 
f 16/16/37 17/17/38 18/18/39 15/15/40 
f 15/15/41 18/18/42 13/13/43 14/14/44 
# 11 polygons

