# 3ds Max Wavefront OBJ Exporter v0.97b - (c)2007 guruware
# File Created: 06.03.2017 20:56:28

#
# object clover2
#

v  245.9346 17.3274 3059.6411
v  245.9346 -82.3784 2827.1086
v  498.9414 -82.3784 2827.1086
v  498.9414 17.3274 3059.6411
v  340.8464 -5.4382 2954.0889
v  340.8464 -19.0773 2922.2803
v  384.4067 -19.0773 2922.2803
v  386.1968 -4.7329 2955.7344
v  422.2370 -0.5864 2990.1951
v  423.7898 -43.3414 2890.4827
v  309.2207 -43.3414 2890.4827
v  306.8337 -1.7189 2987.5540
v  326.5990 -9.1099 2659.8154
v  308.9642 0.1841 2665.0156
v  332.9451 -10.4532 2800.2944
v  363.9989 -7.9608 2933.0127
v  383.8877 -7.3229 2938.3987
v  353.2388 -8.7127 2798.7808
# 18 vertices

vn -0.0820 -0.8630 0.4986
vn -0.0888 -0.9614 0.2605
vn 0.1037 -0.9579 0.2676
vn 0.1094 -0.8641 0.4914
vn -0.0866 -0.8712 0.4833
vn -0.0809 -0.8831 0.4622
vn -0.0813 -0.9436 0.3210
vn -0.0857 -0.9539 0.2878
vn -0.0866 -0.8712 0.4833
vn -0.0857 -0.9539 0.2878
vn -0.0888 -0.9614 0.2605
vn -0.0820 -0.8630 0.4986
vn -0.0820 -0.8630 0.4986
vn 0.1094 -0.8641 0.4914
vn 0.0991 -0.8675 0.4874
vn -0.0866 -0.8712 0.4833
vn 0.0991 -0.8675 0.4874
vn 0.0872 -0.8776 0.4714
vn -0.0809 -0.8831 0.4622
vn -0.0866 -0.8712 0.4833
vn 0.1094 -0.8641 0.4914
vn 0.1037 -0.9579 0.2676
vn 0.1081 -0.9492 0.2956
vn 0.0991 -0.8675 0.4874
vn 0.1081 -0.9492 0.2956
vn 0.0878 -0.9467 0.3099
vn 0.0872 -0.8776 0.4714
vn 0.0991 -0.8675 0.4874
vn 0.1037 -0.9579 0.2676
vn -0.0888 -0.9614 0.2605
vn -0.0857 -0.9539 0.2878
vn 0.1081 -0.9492 0.2956
vn 0.1081 -0.9492 0.2956
vn -0.0857 -0.9539 0.2878
vn -0.0813 -0.9436 0.3210
vn 0.0878 -0.9467 0.3099
vn -0.0347 0.9974 0.0635
vn -0.0303 0.9975 0.0631
vn -0.0797 0.9941 0.0736
vn -0.0541 0.9958 0.0739
vn -0.0541 0.9958 0.0739
vn -0.0797 0.9941 0.0736
vn 0.4034 0.9137 0.0498
vn 0.4527 0.8905 0.0454
# 44 vertex normals

vt 0.8490 0.6133 0.0000
vt 0.8490 0.4608 0.0000
vt 0.9945 0.4608 0.0000
vt 0.9945 0.6133 0.0000
vt 0.9036 0.5494 0.0000
vt 0.9036 0.5286 0.0000
vt 0.9286 0.5286 0.0000
vt 0.9297 0.5505 0.0000
vt 0.9504 0.5706 0.0000
vt 0.9513 0.5052 0.0000
vt 0.8854 0.5052 0.0000
vt 0.8840 0.5689 0.0000
vt 0.6894 0.0450 0.0000
vt 0.6894 0.1010 0.0000
vt 0.6144 0.1006 0.0000
vt 0.5394 0.1003 0.0000
vt 0.5395 0.0443 0.0000
vt 0.6145 0.0447 0.0000
# 18 texture coords

g clover2
s 1
f 7/7/1 8/8/2 5/5/3 6/6/4 
f 10/10/5 3/3/6 4/4/7 9/9/8 
f 10/10/9 9/9/10 8/8/11 7/7/12 
f 7/7/13 6/6/14 11/11/15 10/10/16 
f 11/11/17 2/2/18 3/3/19 10/10/20 
f 6/6/21 5/5/22 12/12/23 11/11/24 
f 12/12/25 1/1/26 2/2/27 11/11/28 
f 5/5/29 8/8/30 9/9/31 12/12/32 
f 12/12/33 9/9/34 4/4/35 1/1/36 
f 16/16/37 17/17/38 18/18/39 15/15/40 
f 15/15/41 18/18/42 13/13/43 14/14/44 
# 11 polygons

